<svg width="149" height="48" viewBox="0 0 149 48" fill="none" xmlns="http://www.w3.org/2000/svg">
<path d="M13 15.4375C13 16.7917 15.3646 17.4688 20.0938 17.4688C21.2604 17.4688 22.125 17.3438 22.6875 17.0938C24.1667 16.3854 25.9792 16.0312 28.125 16.0312C30.2917 16.0312 31.375 16.5833 31.375 17.6875C31.375 18.125 31.1875 18.7708 30.8125 19.625C30.4583 20.4583 30.1875 20.9688 30 21.1562C29.8333 21.3438 29.1667 21.6042 28 21.9375C26.8333 22.25 26.0729 22.4271 25.7188 22.4688C25.3854 22.4896 25.1562 22.5104 25.0312 22.5312C24.9271 22.5521 24.7917 22.5729 24.625 22.5938C24.4792 22.6146 24.1354 22.6771 23.5938 22.7812C23.0521 22.8646 22.6562 22.8542 22.4062 22.75C15.5104 26.1458 10.7708 29.875 8.1875 33.9375C7.02083 35.7708 6.4375 37.3438 6.4375 38.6562C6.4375 40.7188 7.86458 41.75 10.7188 41.75C12.9479 41.75 15.7812 40.875 19.2188 39.125C22.6562 37.375 25.6979 35.2604 28.3438 32.7812C31.0104 30.2812 32.3438 28.1146 32.3438 26.2812C32.3438 25.6979 32.7812 25.4062 33.6562 25.4062C35.6771 25.4062 36.6875 26.6042 36.6875 29C36.6875 30.125 36.1979 31.4688 35.2188 33.0312C34.2396 34.5729 32.875 36.1458 31.125 37.75C29.375 39.3333 27.4271 40.8125 25.2812 42.1875C23.1354 43.5625 20.75 44.6875 18.125 45.5625C15.5208 46.4375 13.3125 46.875 11.5 46.875C9.6875 46.875 8.21875 46.6979 7.09375 46.3438C5.98958 46.0104 4.94792 45.5 3.96875 44.8125C1.84375 43.3333 0.78125 41.0938 0.78125 38.0938C0.78125 36.4688 1.21875 34.8229 2.09375 33.1562C2.96875 31.4688 4.11458 29.9375 5.53125 28.5625C8.13542 25.9792 10.9271 23.8333 13.9062 22.125C9.61458 21.1458 7.46875 18.9375 7.46875 15.5C7.46875 11.625 10.4479 8.08333 16.4062 4.875C19.7188 3.10417 23.3125 1.83333 27.1875 1.0625C29.0208 0.6875 30.5521 0.5 31.7812 0.5C34.2812 0.5 36.1667 0.697917 37.4375 1.09375C38.2083 1.46875 38.8333 2 39.3125 2.6875C39.7917 3.35417 40.0312 3.9375 40.0312 4.4375C40.0312 4.91667 39.9688 5.35417 39.8438 5.75C39.7188 6.14583 39.5104 6.45833 39.2188 6.6875C38.8021 7 38.3333 7.23958 37.8125 7.40625C37.2917 7.57292 36.9896 7.67708 36.9062 7.71875C35.2812 8.40625 33.8854 8.75 32.7188 8.75C30.6354 8.75 29.5 8.47917 29.3125 7.9375C29.3542 7.39583 29.5833 6.77083 30 6.0625C28.0208 6.14583 25.9688 6.55208 23.8438 7.28125C21.7188 7.98958 19.875 8.83333 18.3125 9.8125C16.7708 10.7708 15.5 11.7708 14.5 12.8125C13.5 13.8542 13 14.7292 13 15.4375ZM51.7188 41.1875C51.7188 42.1042 52.3438 42.5625 53.5938 42.5625C54.2604 42.5625 55.0938 42.2292 56.0938 41.5625C57.1146 40.8958 58.0312 40.1667 58.8438 39.375C61.0104 37.2292 62.2396 36.1562 62.5312 36.1562C63.0729 36.1562 63.3438 36.9375 63.3438 38.5C63.3438 40.0625 62.8542 41.1354 61.875 41.7188C58.8958 44.4062 56.5938 46.0417 54.9688 46.625C54.0521 46.9375 53.0417 47.0833 51.9375 47.0625C50.8333 47.0417 49.7396 46.5625 48.6562 45.625C47.5729 44.6875 47.0312 43.5521 47.0312 42.2188C47.0312 40.8646 47.3854 39.3333 48.0938 37.625C48.8021 35.9167 49.5208 34.4583 50.25 33.25C51 32.0208 51.9167 30.6042 53 29C54.0833 27.375 54.6562 26.3646 54.7188 25.9688L54.6562 25.9062C53.9688 25.9688 52.2604 27.3229 49.5312 29.9688C46.8229 32.6146 44.5833 34.9167 42.8125 36.875C41.0417 38.8333 38.9271 41.4479 36.4688 44.7188C35.7812 45.6146 35.2188 46.0625 34.7812 46.0625C34.3438 46.0625 33.7604 45.9271 33.0312 45.6562C32.2812 45.3646 31.8229 45.1562 31.6562 45.0312C31.4896 44.9062 31.4062 44.7188 31.4062 44.4688C31.4062 44.2188 31.4792 43.9167 31.625 43.5625C31.7708 43.1875 31.9167 42.8854 32.0625 42.6562C32.1875 42.4062 32.4062 42.0312 32.7188 41.5312C33.0312 41.0312 33.6458 39.9792 34.5625 38.375C35.5 36.75 36.9271 34.3333 38.8438 31.125C40.7604 27.9167 41.9062 25.9792 42.2812 25.3125C43.0729 23.9375 43.7188 22.9375 44.2188 22.3125C45.1562 21.125 46.7396 20.5312 48.9688 20.5312C49.4688 20.5312 49.7188 20.8438 49.7188 21.4688C49.7188 22.4479 48.8125 24.2917 47 27L45.6875 28.9688C49.2917 24.9688 52.3333 22.4375 54.8125 21.375C56.0208 20.8542 57.1042 20.5938 58.0625 20.5938C59.0417 20.5938 59.8125 20.8542 60.375 21.375C60.9583 21.8958 61.25 22.4792 61.25 23.125C61.25 23.75 61.0312 24.5104 60.5938 25.4062C60.1562 26.2812 59.7083 27.0729 59.25 27.7812C58.8125 28.4688 58.2292 29.3438 57.5 30.4062C56.7708 31.4688 56.375 32.0521 56.3125 32.1562C56.25 32.2396 56.0833 32.4896 55.8125 32.9062C55.5625 33.3021 55.375 33.5938 55.25 33.7812C55.125 33.9688 54.9167 34.3021 54.625 34.7812C54.3333 35.2396 54.0938 35.625 53.9062 35.9375C53.7396 36.25 53.5208 36.6354 53.25 37.0938C53 37.5521 52.7917 37.9479 52.625 38.2812C52.4792 38.6146 52.3229 38.9792 52.1562 39.375C51.8646 40.1042 51.7188 40.7083 51.7188 41.1875ZM81.9062 5.75L83.1875 6.0625C83.375 6.0625 83.5417 6.15625 83.6875 6.34375C83.8333 6.53125 83.9062 6.70833 83.9062 6.875C83.9062 7.04167 83.6875 7.48958 83.25 8.21875C82.8125 8.94792 82.2917 9.78125 81.6875 10.7188C81.1042 11.6354 80.7917 12.1354 80.75 12.2188C82.375 12.0938 83.5208 12.0312 84.1875 12.0312C84.875 12.0312 85.3438 12.0833 85.5938 12.1875C85.8438 12.2708 86.125 12.5312 86.4375 12.9688C86.7708 13.3854 87.0729 13.7083 87.3438 13.9375C87.6146 14.1458 87.75 14.4688 87.75 14.9062C87.75 15.3438 87.4792 15.7188 86.9375 16.0312C86.4167 16.3229 85.8542 16.5 85.25 16.5625C80.4167 17.0417 77.75 17.2917 77.25 17.3125C75.5625 19.8958 73.1979 23.9271 70.1562 29.4062C67.1354 34.8646 65.5312 38.2812 65.3438 39.6562C65.2604 40.2812 65.2188 40.7917 65.2188 41.1875C65.2188 42 65.6458 42.4062 66.5 42.4062C67.3542 42.4062 68.3021 42.0833 69.3438 41.4375C70.3854 40.7708 71.3438 40.0521 72.2188 39.2812C74.5521 37.1979 75.8021 36.1562 75.9688 36.1562C76.5104 36.1562 76.7812 37.0938 76.7812 38.9688C76.7812 39.9896 76.3125 40.9062 75.375 41.7188C73.2708 43.5312 71.5 44.8958 70.0625 45.8125C68.625 46.7292 67.1875 47.1875 65.75 47.1875C65.4375 47.1875 65.1458 47.1562 64.875 47.0938C63.2083 46.7812 61.9792 46.1771 61.1875 45.2812C60.4167 44.3646 60.0312 43.1354 60.0312 41.5938C60.0521 40.0521 60.5104 38.1875 61.4062 36C62.3229 33.7917 63.4688 31.4479 64.8438 28.9688C67.0938 24.9271 69.3438 21.1354 71.5938 17.5938L70.4062 17.75C67.9896 18.0208 66.5833 18.1562 66.1875 18.1562H65.9062C65.3021 18.1562 64.7188 18.0417 64.1562 17.8125C63.5938 17.5625 63.3125 17.2604 63.3125 16.9062C63.3125 16.5521 63.4583 16.2083 63.75 15.875C64.0625 15.5417 64.25 15.2812 64.3125 15.0938C64.4583 14.6354 65 14.125 65.9375 13.5625C66.8958 13 67.6146 12.7083 68.0938 12.6875C68.5729 12.6458 69.0312 12.6146 69.4688 12.5938C69.9271 12.5729 70.4271 12.5521 70.9688 12.5312C71.5312 12.5104 71.9583 12.4896 72.25 12.4688L75.0625 12.3438C76.8125 9.71875 78.0104 8.03125 78.6562 7.28125C79.3229 6.53125 79.7083 6.125 79.8125 6.0625C79.9167 5.97917 80.125 5.9375 80.4375 5.9375L81.9062 5.75ZM84.375 28.9688C89.2917 23.3854 93.4792 20.5938 96.9375 20.5938C97.7917 20.5938 98.4896 20.8542 99.0312 21.375C99.5938 21.875 99.875 22.5312 99.875 23.3438C99.875 24.1562 99.2917 25.5208 98.125 27.4375C96.9792 29.3333 95.9167 30.9375 94.9375 32.25C94.4167 32.9167 93.8229 33.25 93.1562 33.25C92.5104 33.25 92 33.0104 91.625 32.5312C91.2708 32.0521 91.0938 31.4896 91.0938 30.8438C91.0938 29.4062 91.8646 27.7812 93.4062 25.9688L93.3438 25.9062C92.6562 25.9688 90.9479 27.3229 88.2188 29.9688C85.5104 32.6146 83.1979 34.9896 81.2812 37.0938C79.3854 39.1771 77.3229 41.7188 75.0938 44.7188C74.4479 45.6146 73.8958 46.0625 73.4375 46.0625C73 46.0625 72.4167 45.9271 71.6875 45.6562C70.9375 45.3646 70.4896 45.1562 70.3438 45.0312C70.1771 44.9062 70.0938 44.6979 70.0938 44.4062C70.0938 44.1146 70.1771 43.7812 70.3438 43.4062C70.5104 43.0104 70.8229 42.4583 71.2812 41.75C71.7188 41.0417 72.3854 39.8958 73.2812 38.3125C74.1979 36.7292 75.6146 34.3333 77.5312 31.125C79.4479 27.9167 80.5938 25.9792 80.9688 25.3125C81.7604 23.9375 82.4062 22.9375 82.9062 22.3125C83.8438 21.125 85.4271 20.5312 87.6562 20.5312C88.1562 20.5312 88.4062 20.8438 88.4062 21.4688C88.4062 22.4479 87.5 24.2917 85.6875 27L84.375 28.9688ZM120.375 22.25C121.958 22.25 122.75 22.7917 122.75 23.875C122.75 24.4583 122.615 24.8854 122.344 25.1562C122.073 25.4271 121.49 26.3333 120.594 27.875C119.719 29.3958 118.74 31.3542 117.656 33.75C116.594 36.125 115.906 38.1562 115.594 39.8438C115.531 40.0521 115.5 40.3438 115.5 40.7188C115.5 41.8646 115.812 42.4375 116.438 42.4375C117.062 42.4375 117.802 42.1458 118.656 41.5625C119.51 40.9583 120.271 40.3229 120.938 39.6562C121.604 38.9688 122.25 38.2708 122.875 37.5625C123.521 36.8542 123.906 36.4479 124.031 36.3438C124.156 36.2396 124.344 36.1875 124.594 36.1875C124.99 36.1875 125.229 36.4896 125.312 37.0938C125.396 37.6979 125.438 38.3229 125.438 38.9688C125.438 39.6146 125.375 40.0625 125.25 40.3125C124.646 41.5 123.312 42.9271 121.25 44.5938C119.208 46.2604 117.344 47.0938 115.656 47.0938C113.99 47.0938 112.76 46.5833 111.969 45.5625C111.177 44.5417 110.781 43.4167 110.781 42.1875C110.781 40.9375 110.99 39.8438 111.406 38.9062C109.677 41.1562 107.688 43.0625 105.438 44.625C103.208 46.1875 101.385 46.9688 99.9688 46.9688C98.5521 46.9688 97.3958 46.5417 96.5 45.6875C95.3542 44.625 94.7812 43.1562 94.7812 41.2812C94.7812 39.3854 95.1979 37.4896 96.0312 35.5938C96.8854 33.6771 98 31.9375 99.375 30.375C100.75 28.7917 102.26 27.3542 103.906 26.0625C107.365 23.3542 110.552 22 113.469 22C114.594 22 115.51 22.1875 116.219 22.5625C116.927 22.9375 117.375 23.4062 117.562 23.9688C118.062 23.2188 118.479 22.75 118.812 22.5625C119.167 22.3542 119.688 22.25 120.375 22.25ZM116.219 25.7188C112.656 25.7188 108.969 27.6979 105.156 31.6562C103.802 33.0729 102.552 34.7708 101.406 36.75C100.281 38.7292 99.7188 40.0833 99.7188 40.8125C99.7188 41.5417 99.9271 41.9062 100.344 41.9062C100.927 41.9062 102.552 40.7604 105.219 38.4688C107.885 36.1562 109.656 34.4583 110.531 33.375C111.49 32.1667 113.385 29.6146 116.219 25.7188ZM132.812 28.9688C137.729 23.3854 141.917 20.5938 145.375 20.5938C146.229 20.5938 146.927 20.8542 147.469 21.375C148.031 21.875 148.312 22.5312 148.312 23.3438C148.312 24.1562 147.729 25.5208 146.562 27.4375C145.417 29.3333 144.354 30.9375 143.375 32.25C142.854 32.9167 142.26 33.25 141.594 33.25C140.948 33.25 140.438 33.0104 140.062 32.5312C139.708 32.0521 139.531 31.4896 139.531 30.8438C139.531 29.4062 140.302 27.7812 141.844 25.9688L141.781 25.9062C141.094 25.9688 139.385 27.3229 136.656 29.9688C133.948 32.6146 131.635 34.9896 129.719 37.0938C127.823 39.1771 125.76 41.7188 123.531 44.7188C122.885 45.6146 122.333 46.0625 121.875 46.0625C121.438 46.0625 120.854 45.9271 120.125 45.6562C119.375 45.3646 118.927 45.1562 118.781 45.0312C118.615 44.9062 118.531 44.6979 118.531 44.4062C118.531 44.1146 118.615 43.7812 118.781 43.4062C118.948 43.0104 119.26 42.4583 119.719 41.75C120.156 41.0417 120.823 39.8958 121.719 38.3125C122.635 36.7292 124.052 34.3333 125.969 31.125C127.885 27.9167 129.031 25.9792 129.406 25.3125C130.198 23.9375 130.844 22.9375 131.344 22.3125C132.281 21.125 133.865 20.5312 136.094 20.5312C136.594 20.5312 136.844 20.8438 136.844 21.4688C136.844 22.4479 135.938 24.2917 134.125 27L132.812 28.9688Z" fill="#CCCCCC"/>
</svg>
