<svg xmlns="http://www.w3.org/2000/svg" width="18" height="18" fill="none" style=""><rect id="backgroundrect" width="100%" height="100%" x="0" y="0" fill="none" stroke="none" class="" style=""/>


<g class="currentLayer" style=""><title>Layer 1</title><circle cx="9.163222908973694" cy="8.89876040087961" r="8.336777687072754" fill="#FAD246" id="svg_1" class=""/><path d="M11.9976,9.985037052154542 L9.10449,9.862937052154543 C8.7627,10.69303705215454 8.50228,11.584137052154542 8.32324,12.53633705215454 C8.3151,12.577037052154541 8.3029,12.63393705215454 8.28662,12.70723705215454 C8.27035,12.78043705215454 8.25814,12.841537052154543 8.25,12.890337052154543 C8.24186,12.93103705215454 8.22965,12.983937052154541 8.21338,13.049037052154542 C8.1971,13.11413705215454 8.18083,13.16703705215454 8.16455,13.207737052154542 C8.14827,13.24023705215454 8.12793,13.27683705215454 8.10352,13.317537052154542 C8.05469,13.382637052154543 7.993649999999999,13.415237052154543 7.92041,13.415237052154543 C7.855309999999999,13.415237052154543 7.79834,13.403037052154545 7.749510000000001,13.378637052154545 C7.70068,13.354237052154543 7.651859999999999,13.317537052154542 7.60303,13.268737052154542 C7.5542,13.219937052154542 7.50944,13.17513705215454 7.46875,13.134437052154542 C7.4361999999999995,13.085637052154542 7.391439999999999,13.024637052154542 7.3344700000000005,12.951337052154543 L7.200199999999999,12.78043705215454 C7.17578,12.74793705215454 7.13102,12.69503705215454 7.06592,12.62173705215454 C7.00081,12.540437052154541 6.956049999999999,12.48753705215454 6.93164,12.46303705215454 C6.90723,12.430537052154541 6.87467,12.38983705215454 6.83398,12.34103705215454 C6.79329,12.284037052154543 6.76481,12.235237052154542 6.74854,12.19453705215454 C6.7404,12.15383705215454 6.736330000000001,12.11723705215454 6.736330000000001,12.084637052154541 C6.736330000000001,12.052137052154542 6.74854,12.003237052154542 6.77295,11.938137052154541 C6.805499999999999,11.87303705215454 6.89909,11.669637052154542 7.053710000000001,11.327837052154543 C7.29785,10.758137052154542 7.4891000000000005,10.26173705215454 7.62744,9.838537052154543 C6.39046,9.871137052154541 5.6295600000000015,9.887437052154542 5.34473,9.887437052154542 C4.83203,9.887437052154542 4.57568,9.728737052154543 4.57568,9.41133705215454 C4.57568,9.378737052154541 4.58789,9.32583705215454 4.6123,9.25263705215454 C4.64486,9.171237052154543 4.6936800000000005,9.036937052154542 4.758789999999999,8.849837052154541 C4.83203,8.654437052154542 4.88086,8.52423705215454 4.90527,8.459137052154542 C4.93783,8.385937052154542 4.98665,8.300437052154543 5.05176,8.202837052154543 C5.15755,8.040037052154542 5.332520000000002,7.95863705215454 5.57666,7.95863705215454 C6.227700000000001,7.95863705215454 7.102539999999999,7.9831370521545395 8.20117,8.03193705215454 C8.23372,7.966837052154542 8.42904,7.625037052154541 8.78711,7.006537052154542 C9.14518,6.388037052154541 9.38932,5.952637052154541 9.51953,5.700337052154541 C9.64974,5.448137052154541 9.72705,5.28533705215454 9.75146,5.2121370521545405 C9.77588,5.138837052154541 9.80029,5.077837052154541 9.82471,5.029037052154543 C9.85726,4.9720370521545405 9.90202,4.9110370521545414 9.95898,4.8459370521545395 C10.0648,4.7075370521545405 10.2072,4.63833705215454 10.3862,4.63833705215454 C10.5734,4.63833705215454 10.7687,4.7238370521545425 10.9722,4.894737052154541 C11.1756,5.05743705215454 11.2773,5.232437052154542 11.2773,5.419637052154542 C11.2773,5.59863705215454 11.2244,5.798037052154541 11.1187,6.017737052154541 C11.0129,6.2375370521545435 10.8216,6.5711370521545405 10.5449,7.018737052154542 C10.2682,7.458237052154541 10.0526,7.820337052154542 9.89795,8.10513705215454 C11.2326,8.162137052154543 12.0749,8.190637052154543 12.4248,8.190637052154543 C13.0107,8.190637052154543 13.3037,8.345237052154541 13.3037,8.654437052154542 C13.3037,8.768437052154542 13.2793,8.866037052154542 13.2305,8.947437052154541 C13.1816,9.02883705215454 13.1247,9.126537052154543 13.0596,9.24043705215454 C13.0026,9.346237052154542 12.9578,9.427637052154541 12.9253,9.48453705215454 C12.9009,9.53343705215454 12.8561,9.59853705215454 12.791,9.67983705215454 C12.7259,9.753137052154543 12.6608,9.810037052154541 12.5957,9.850737052154543 C12.4329,9.94033705215454 12.2336,9.985037052154542 11.9976,9.985037052154542 z" fill="black" id="svg_2" class=""/></g></svg>