<svg xmlns="http://www.w3.org/2000/svg" width="18.030302909889542" height="19.0303029098896" fill="none"><rect id="backgroundrect" width="100%" height="100%" x="0" y="0" fill="none" stroke="none" class="" style=""/>


<g class="currentLayer" style=""><title>Layer 1</title><circle cx="8.75" cy="9.659090995788574" r="8.75" fill="#FAD246" id="svg_1" class=""/><path d="M6.6123,11.038490995788575 H6.55127 C6.38851,11.054790995788576 6.22575,11.009990995788574 6.06299,10.904190995788575 C5.90837,10.798390995788573 5.83105,10.668190995788574 5.83105,10.513590995788576 C5.83105,10.358990995788574 5.87174,10.220590995788573 5.95312,10.098590995788573 C6.0426400000000005,9.976490995788573 6.09961,9.850290995788573 6.12402,9.720090995788574 C6.15658,9.589890995788576 6.30306,9.402790995788575 6.56348,9.158590995788575 C6.83203,8.914490995788576 7.05583,8.784290995788574 7.23486,8.767990995788573 C7.42204,8.743590995788573 7.74756,8.715090995788575 8.21143,8.682490995788573 C8.67529,8.649990995788574 9.13916,8.617390995788575 9.60303,8.584890995788573 C10.0669,8.544190995788576 10.5145,8.523790995788573 10.9458,8.523790995788573 C11.3771,8.523790995788573 11.6253,8.548290995788573 11.6904,8.597090995788573 C11.7637,8.637790995788574 11.841,8.747590995788574 11.9224,8.926690995788576 C12.0119,9.097590995788575 12.0933,9.223690995788573 12.1665,9.305090995788575 C12.2397,9.386490995788574 12.2764,9.520790995788573 12.2764,9.707890995788574 C12.2764,9.886990995788572 12.2031,10.045690995788576 12.0566,10.183990995788573 C11.9102,10.314190995788575 11.7433,10.395590995788574 11.5562,10.428090995788573 C11.3771,10.452590995788576 11.1737,10.480990995788574 10.9458,10.513590995788576 C10.7179,10.537990995788576 10.4616,10.566490995788573 10.1768,10.598990995788576 C9.90007,10.623490995788575 9.635580000000001,10.651890995788573 9.3833,10.684490995788575 C9.13102,10.716990995788574 8.84212,10.765890995788574 8.5166,10.830990995788575 C7.88997,10.952990995788575 7.25521,11.022190995788574 6.6123,11.038490995788575 z" fill="black" id="svg_2" class=""/></g></svg>