<svg width="172" height="176" viewBox="0 0 172 176" fill="none" xmlns="http://www.w3.org/2000/svg">
<path d="M88.5766 90.3386L87.0298 90.6667C86.686 90.6667 86.5141 90.4479 86.5141 90.0104C86.5141 89.5729 86.6391 89.2917 86.8891 89.1667C89.8891 87.4479 92.7641 86.5886 95.5141 86.5886C96.7329 86.5886 97.6548 87.0573 98.2798 87.9948C98.936 88.9011 99.2641 90.1354 99.2641 91.6979C99.2641 93.2292 98.1704 95.9167 95.9829 99.7604C93.8266 103.604 90.936 107.964 87.311 112.839C83.686 117.682 79.0923 122.995 73.5298 128.776C67.9673 134.526 62.3735 139.604 56.7485 144.01C51.1548 148.385 46.1391 151.698 41.7016 153.948C37.2954 156.198 33.1235 157.323 29.186 157.323C26.6548 157.323 24.7485 156.464 23.4673 154.745C22.2173 152.995 21.5923 151.026 21.5923 148.839C21.5923 146.62 22.3266 143.792 23.7954 140.354C25.2954 136.885 27.0923 133.464 29.186 130.089C31.2798 126.682 33.7016 123.104 36.4516 119.354C40.5766 113.635 44.9048 108.12 49.436 102.807C44.4048 106.995 40.9673 109.448 39.1235 110.167C37.311 110.885 35.7329 111.245 34.3891 111.245C33.0766 111.245 32.0454 110.698 31.2954 109.604C30.5766 108.479 30.2173 107.276 30.2173 105.995C30.2173 104.682 30.7329 103.385 31.7641 102.104C32.8266 100.792 33.8266 100.135 34.7641 100.135C35.1079 100.135 35.2798 100.26 35.2798 100.51C35.2798 100.76 35.1548 101.057 34.9048 101.401C34.686 101.714 34.5766 101.932 34.5766 102.057C34.5766 102.401 34.8423 102.573 35.3735 102.573C35.9048 102.573 36.7016 102.339 37.7641 101.87C38.8266 101.401 41.4516 99.7604 45.6391 96.9479C49.8579 94.1354 52.9516 91.8073 54.9204 89.9636C55.7016 89.2761 56.811 88.9323 58.2485 88.9323C59.7173 88.9323 61.186 89.2917 62.6548 90.0104C64.1235 90.6979 64.8579 91.4011 64.8579 92.1198C64.8579 92.2761 64.8266 92.4323 64.7641 92.5886C64.7016 92.7136 64.6391 93.0261 64.5766 93.5261C64.5141 93.9948 64.2641 94.5729 63.8266 95.2604C63.4204 95.9167 60.186 100.479 54.1235 108.948C38.9673 130.073 31.3891 142.557 31.3891 146.401C31.3891 147.807 31.936 148.51 33.0298 148.51C34.5298 148.51 37.436 147.151 41.7485 144.432C46.061 141.682 50.061 138.651 53.7485 135.339C57.436 131.995 61.061 128.479 64.6235 124.792C68.186 121.104 71.8579 117.089 75.6391 112.745C79.4204 108.401 82.6235 104.198 85.2485 100.135C87.8735 96.0729 89.186 92.9948 89.186 90.9011C89.186 90.5261 88.9829 90.3386 88.5766 90.3386ZM114.499 121.042C116.874 121.042 118.061 121.854 118.061 123.479C118.061 124.354 117.858 124.995 117.452 125.401C117.045 125.807 116.17 127.167 114.827 129.479C113.514 131.76 112.045 134.698 110.42 138.292C108.827 141.854 107.795 144.901 107.327 147.432C107.233 147.745 107.186 148.182 107.186 148.745C107.186 150.464 107.655 151.323 108.592 151.323C109.53 151.323 110.639 150.885 111.92 150.01C113.202 149.104 114.342 148.151 115.342 147.151C116.342 146.12 117.311 145.073 118.249 144.01C119.217 142.948 119.795 142.339 119.983 142.182C120.17 142.026 120.452 141.948 120.827 141.948C121.42 141.948 121.78 142.401 121.905 143.307C122.03 144.214 122.092 145.151 122.092 146.12C122.092 147.089 121.999 147.76 121.811 148.135C120.905 149.917 118.905 152.057 115.811 154.557C112.749 157.057 109.952 158.307 107.42 158.307C104.92 158.307 103.077 157.542 101.889 156.01C100.702 154.479 100.108 152.792 100.108 150.948C100.108 149.073 100.42 147.432 101.045 146.026C98.4516 149.401 95.4673 152.26 92.0923 154.604C88.7485 156.948 86.0141 158.12 83.8891 158.12C81.7641 158.12 80.0298 157.479 78.686 156.198C76.9673 154.604 76.1079 152.401 76.1079 149.589C76.1079 146.745 76.7329 143.901 77.9829 141.057C79.2641 138.182 80.936 135.573 82.9985 133.229C85.061 130.854 87.3266 128.698 89.7954 126.76C94.9829 122.698 99.7641 120.667 104.139 120.667C105.827 120.667 107.202 120.948 108.264 121.51C109.327 122.073 109.999 122.776 110.28 123.62C111.03 122.495 111.655 121.792 112.155 121.51C112.686 121.198 113.467 121.042 114.499 121.042ZM108.264 126.245C102.92 126.245 97.3891 129.214 91.6704 135.151C89.6391 137.276 87.7641 139.823 86.0454 142.792C84.3579 145.76 83.5141 147.792 83.5141 148.885C83.5141 149.979 83.8266 150.526 84.4516 150.526C85.3266 150.526 87.7641 148.807 91.7641 145.37C95.7641 141.901 98.4204 139.354 99.7329 137.729C101.17 135.917 104.014 132.089 108.264 126.245ZM142.295 149.448C142.295 150.823 143.233 151.51 145.108 151.51C146.108 151.51 147.358 151.01 148.858 150.01C150.389 149.01 151.764 147.917 152.983 146.729C156.233 143.51 158.077 141.901 158.514 141.901C159.327 141.901 159.733 143.073 159.733 145.417C159.733 147.76 158.999 149.37 157.53 150.245C153.061 154.276 149.608 156.729 147.17 157.604C145.795 158.073 144.28 158.292 142.624 158.26C140.967 158.229 139.327 157.51 137.702 156.104C136.077 154.698 135.264 152.995 135.264 150.995C135.264 148.964 135.795 146.667 136.858 144.104C137.92 141.542 138.999 139.354 140.092 137.542C141.217 135.698 142.592 133.573 144.217 131.167C145.842 128.729 146.702 127.214 146.795 126.62L146.702 126.526C145.67 126.62 143.108 128.651 139.014 132.62C134.952 136.589 131.592 140.042 128.936 142.979C126.28 145.917 123.108 149.839 119.42 154.745C118.389 156.089 117.545 156.76 116.889 156.76C116.233 156.76 115.358 156.557 114.264 156.151C113.139 155.714 112.452 155.401 112.202 155.214C111.952 155.026 111.827 154.745 111.827 154.37C111.827 153.995 111.936 153.542 112.155 153.01C112.374 152.448 112.592 151.995 112.811 151.651C112.999 151.276 113.327 150.714 113.795 149.964C114.264 149.214 115.186 147.635 116.561 145.229C117.967 142.792 120.108 139.167 122.983 134.354C125.858 129.542 127.577 126.635 128.139 125.635C129.327 123.573 130.295 122.073 131.045 121.135C132.452 119.354 134.827 118.464 138.17 118.464C138.92 118.464 139.295 118.932 139.295 119.87C139.295 121.339 137.936 124.104 135.217 128.167L133.249 131.12C138.655 125.12 143.217 121.323 146.936 119.729C148.749 118.948 150.374 118.557 151.811 118.557C153.28 118.557 154.436 118.948 155.28 119.729C156.155 120.51 156.592 121.385 156.592 122.354C156.592 123.292 156.264 124.432 155.608 125.776C154.952 127.089 154.28 128.276 153.592 129.339C152.936 130.37 152.061 131.682 150.967 133.276C149.874 134.87 149.28 135.745 149.186 135.901C149.092 136.026 148.842 136.401 148.436 137.026C148.061 137.62 147.78 138.057 147.592 138.339C147.405 138.62 147.092 139.12 146.655 139.839C146.217 140.526 145.858 141.104 145.577 141.573C145.327 142.042 144.999 142.62 144.592 143.307C144.217 143.995 143.905 144.589 143.655 145.089C143.436 145.589 143.202 146.135 142.952 146.729C142.514 147.823 142.295 148.729 142.295 149.448Z" fill="black"/>
<path d="M70.3452 53.4688L70.5952 54.6562C70.5952 55.1562 70.3348 55.75 69.8139 56.4375C68.4389 58.2292 66.2306 60.2917 63.1889 62.625C60.1681 64.9375 57.9389 66.0938 56.5014 66.0938C55.0639 66.0938 53.9389 65.6771 53.1264 64.8438C52.3139 63.9896 51.9077 63.0208 51.9077 61.9375C51.9077 60.6458 53.2619 57.7917 55.9702 53.375C60.0327 46.8125 65.2202 39.1458 71.5327 30.375C70.1994 31.75 66.6577 35.4583 60.9077 41.5C48.1785 54.8333 40.741 62.3854 38.5952 64.1562C38.241 64.4479 37.7202 64.5938 37.0327 64.5938C36.366 64.5938 35.6577 64.3229 34.9077 63.7812C34.1577 63.2188 33.7827 62.5938 33.7827 61.9062V61.75C33.866 60.875 35.8764 56.5938 39.8139 48.9062C43.7514 41.2188 47.0535 35.1042 49.7202 30.5625C45.7827 34.8958 41.8035 39.7292 37.7827 45.0625C30.1369 55.1875 24.5431 63.8125 21.0014 70.9375C20.6889 71.6042 20.3035 71.9375 19.8452 71.9375C19.3869 71.9375 18.7202 71.8229 17.8452 71.5938C16.0119 71.0938 15.0952 70.2188 15.0952 68.9688C15.0952 68.2188 16.6264 65.5417 19.6889 60.9375C22.7514 56.3125 26.3035 51.2708 30.3452 45.8125C34.3869 40.3333 38.5744 35.0625 42.9077 30C48.8869 23 52.7306 19.5 54.4389 19.5C54.7098 19.5 54.9702 19.5729 55.2202 19.7188C55.4702 19.8438 55.6264 19.9062 55.6889 19.9062C55.7514 19.9062 55.8139 19.875 55.8764 19.8125C56.1473 19.4792 56.6785 19.3125 57.4702 19.3125C58.2827 19.3125 59.0639 19.4688 59.8139 19.7812C60.5848 20.0938 60.9702 20.4479 60.9702 20.8438C60.9702 21.0938 59.9285 23.0833 57.8452 26.8125C50.866 39.1875 46.1785 47.6875 43.7827 52.3125C46.0744 49.5417 49.3452 45.8646 53.5952 41.2812C57.866 36.6979 62.3452 32.125 67.0327 27.5625C73.1369 21.6458 76.7827 18.6875 77.9702 18.6875C78.4494 18.6875 79.0535 18.7917 79.7827 19C81.0744 19.375 82.3139 19.5625 83.5014 19.5625C83.8348 19.625 84.116 19.7708 84.3452 20C84.5952 20.2083 84.7202 20.4271 84.7202 20.6562C84.7202 20.8854 84.6577 21.0729 84.5327 21.2188C77.7619 30.2188 72.0535 38.1562 67.4077 45.0312C62.7619 51.9062 59.8973 56.5521 58.8139 58.9688C61.0014 58.5104 64.2619 55.8958 68.5952 51.125C68.7827 50.875 68.9181 50.7083 69.0014 50.625C69.0848 50.5417 69.1577 50.4583 69.2202 50.375C69.5744 49.9583 69.8452 50.2188 70.0327 51.1562C70.116 51.6979 70.1681 52.0833 70.1889 52.3125C70.2306 52.5208 70.2619 52.75 70.2827 53C70.3244 53.2292 70.3452 53.3854 70.3452 53.4688ZM92.3139 30.6875C92.3139 31.875 91.7619 33.0729 90.6577 34.2812C89.5535 35.4688 88.3973 36.0625 87.1889 36.0625C86.0014 36.0625 85.4077 35.4375 85.4077 34.1875C85.4077 32.9375 85.9285 31.75 86.9702 30.625C88.0327 29.4792 89.1994 28.9062 90.4702 28.9062C91.0327 28.9062 91.4806 29.0625 91.8139 29.375C92.1473 29.6875 92.3139 30.125 92.3139 30.6875ZM87.2514 57.9688C87.2514 58.5938 87.1889 59.0417 87.0639 59.3125C86.0431 61.3958 84.4181 63.0833 82.1889 64.375C79.9598 65.6458 78.0223 66.2812 76.3764 66.2812C74.7306 66.2812 73.3139 65.7292 72.1264 64.625C70.9389 63.5208 70.3452 62.3958 70.3452 61.25C70.3452 60.1042 70.9181 58.4375 72.0639 56.25C73.2098 54.0625 74.3556 52.0417 75.5014 50.1875C76.6473 48.3333 77.2202 47.3333 77.2202 47.1875C77.2202 47.0208 77.0014 46.7083 76.5639 46.25C76.1473 45.7917 75.9389 45.4583 75.9389 45.25C75.9389 45.0208 76.366 44.4479 77.2202 43.5312C78.0952 42.5938 79.1473 41.6771 80.3764 40.7812C81.6264 39.8646 82.5744 39.4062 83.2202 39.4062C83.8869 39.4062 84.4806 39.6979 85.0014 40.2812C85.5223 40.8646 85.7827 41.3958 85.7827 41.875C85.7827 42.3542 83.3035 46.8646 78.3452 55.4062C78.2827 55.5312 78.1056 55.8125 77.8139 56.25C77.5431 56.6667 77.3244 57.0208 77.1577 57.3125C77.0119 57.5833 76.8348 57.9167 76.6264 58.3125C76.2098 59.1458 76.0014 59.8438 76.0014 60.4062C76.0014 61.1146 76.4806 61.4688 77.4389 61.4688C78.3973 61.4688 79.3869 61.1458 80.4077 60.5C81.4494 59.8333 82.3452 59.1042 83.0952 58.3125C85.0535 56.2083 86.1681 55.1562 86.4389 55.1562C86.9806 55.1562 87.2514 56.0938 87.2514 57.9688ZM101.283 60.1875C101.283 61.1042 101.908 61.5625 103.158 61.5625C103.824 61.5625 104.658 61.2292 105.658 60.5625C106.679 59.8958 107.595 59.1667 108.408 58.375C110.574 56.2292 111.804 55.1562 112.095 55.1562C112.637 55.1562 112.908 55.9375 112.908 57.5C112.908 59.0625 112.418 60.1354 111.439 60.7188C108.46 63.4062 106.158 65.0417 104.533 65.625C103.616 65.9375 102.606 66.0833 101.501 66.0625C100.397 66.0417 99.3035 65.5625 98.2202 64.625C97.1369 63.6875 96.5952 62.5521 96.5952 61.2188C96.5952 59.8646 96.9494 58.3333 97.6577 56.625C98.366 54.9167 99.0848 53.4583 99.8139 52.25C100.564 51.0208 101.481 49.6042 102.564 48C103.647 46.375 104.22 45.3646 104.283 44.9688L104.22 44.9062C103.533 44.9688 101.824 46.3229 99.0952 48.9688C96.3869 51.6146 94.1473 53.9167 92.3764 55.875C90.6056 57.8333 88.491 60.4479 86.0327 63.7188C85.3452 64.6146 84.7827 65.0625 84.3452 65.0625C83.9077 65.0625 83.3244 64.9271 82.5952 64.6562C81.8452 64.3646 81.3869 64.1562 81.2202 64.0312C81.0535 63.9062 80.9702 63.7188 80.9702 63.4688C80.9702 63.2188 81.0431 62.9167 81.1889 62.5625C81.3348 62.1875 81.4806 61.8854 81.6264 61.6562C81.7514 61.4062 81.9702 61.0312 82.2827 60.5312C82.5952 60.0312 83.2098 58.9792 84.1264 57.375C85.0639 55.75 86.491 53.3333 88.4077 50.125C90.3244 46.9167 91.4702 44.9792 91.8452 44.3125C92.6369 42.9375 93.2827 41.9375 93.7827 41.3125C94.7202 40.125 96.3035 39.5312 98.5327 39.5312C99.0327 39.5312 99.2827 39.8438 99.2827 40.4688C99.2827 41.4479 98.3764 43.2917 96.5639 46L95.2514 47.9688C98.8556 43.9688 101.897 41.4375 104.376 40.375C105.585 39.8542 106.668 39.5938 107.626 39.5938C108.606 39.5938 109.376 39.8542 109.939 40.375C110.522 40.8958 110.814 41.4792 110.814 42.125C110.814 42.75 110.595 43.5104 110.158 44.4062C109.72 45.2812 109.272 46.0729 108.814 46.7812C108.376 47.4688 107.793 48.3438 107.064 49.4062C106.335 50.4688 105.939 51.0521 105.876 51.1562C105.814 51.2396 105.647 51.4896 105.376 51.9062C105.126 52.3021 104.939 52.5938 104.814 52.7812C104.689 52.9688 104.481 53.3021 104.189 53.7812C103.897 54.2396 103.658 54.625 103.47 54.9375C103.304 55.25 103.085 55.6354 102.814 56.0938C102.564 56.5521 102.356 56.9479 102.189 57.2812C102.043 57.6146 101.887 57.9792 101.72 58.375C101.429 59.1042 101.283 59.7083 101.283 60.1875ZM137.47 55.7812C137.616 56.7396 137.689 57.5 137.689 58.0625C137.689 58.6042 137.585 59.0833 137.376 59.5C137.189 59.8958 136.751 60.4688 136.064 61.2188C135.397 61.9479 134.595 62.6875 133.658 63.4375C131.366 65.25 129.022 66.1562 126.626 66.1562C123.189 66.1562 121.47 64.6354 121.47 61.5938C121.47 58.9479 123.772 53.6771 128.376 45.7812C128.543 45.4896 128.658 45.2812 128.72 45.1562C127.116 46.2812 124.043 49.3542 119.501 54.375C114.981 59.375 111.97 62.9167 110.47 65C110.345 65.1875 110.033 65.3958 109.533 65.625C109.033 65.8542 108.637 65.9688 108.345 65.9688C108.074 65.9688 107.783 65.875 107.47 65.6875C107.137 65.5208 106.929 65.4375 106.845 65.4375C106.574 65.4375 106.439 65.3438 106.439 65.1562C106.439 64.9896 106.814 64.0417 107.564 62.3125C108.293 60.5625 109.262 58.3958 110.47 55.8125C113.783 48.6875 118.71 39.4167 125.251 28C127.543 24 129.335 21.1667 130.626 19.5C131.543 18.3125 133.085 17.7188 135.251 17.7188C135.71 17.7188 135.97 17.8542 136.033 18.125C136.095 18.3958 136.126 18.6875 136.126 19C136.126 19.3125 136.064 19.625 135.939 19.9375L132.595 25.1562C125.97 35.4896 120.981 44.0521 117.626 50.8438C120.876 46.8854 124.033 43.8333 127.095 41.6875C128.991 40.3333 130.408 39.6562 131.345 39.6562C132.304 39.6562 133.168 39.8125 133.939 40.125C134.71 40.4167 135.095 41.1354 135.095 42.2812C135.095 42.6979 134.418 44.2396 133.064 46.9062C129.001 54.9062 126.97 59.3542 126.97 60.25C126.97 61.125 127.335 61.5625 128.064 61.5625C129.126 61.5625 130.762 60.5312 132.97 58.4688C134.637 56.9062 135.689 55.9062 136.126 55.4688C136.376 55.2812 136.606 55.1875 136.814 55.1875C137.21 55.1875 137.429 55.3854 137.47 55.7812ZM159.001 41.25C160.585 41.25 161.376 41.7917 161.376 42.875C161.376 43.4583 161.241 43.8854 160.97 44.1562C160.699 44.4271 160.116 45.3333 159.22 46.875C158.345 48.3958 157.366 50.3542 156.283 52.75C155.22 55.125 154.533 57.1562 154.22 58.8438C154.158 59.0521 154.126 59.3438 154.126 59.7188C154.126 60.8646 154.439 61.4375 155.064 61.4375C155.689 61.4375 156.429 61.1458 157.283 60.5625C158.137 59.9583 158.897 59.3229 159.564 58.6562C160.231 57.9688 160.876 57.2708 161.501 56.5625C162.147 55.8542 162.533 55.4479 162.658 55.3438C162.783 55.2396 162.97 55.1875 163.22 55.1875C163.616 55.1875 163.856 55.4896 163.939 56.0938C164.022 56.6979 164.064 57.3229 164.064 57.9688C164.064 58.6146 164.001 59.0625 163.876 59.3125C163.272 60.5 161.939 61.9271 159.876 63.5938C157.835 65.2604 155.97 66.0938 154.283 66.0938C152.616 66.0938 151.387 65.5833 150.595 64.5625C149.804 63.5417 149.408 62.4167 149.408 61.1875C149.408 59.9375 149.616 58.8438 150.033 57.9062C148.304 60.1562 146.314 62.0625 144.064 63.625C141.835 65.1875 140.012 65.9688 138.595 65.9688C137.179 65.9688 136.022 65.5417 135.126 64.6875C133.981 63.625 133.408 62.1562 133.408 60.2812C133.408 58.3854 133.824 56.4896 134.658 54.5938C135.512 52.6771 136.626 50.9375 138.001 49.375C139.376 47.7917 140.887 46.3542 142.533 45.0625C145.991 42.3542 149.179 41 152.095 41C153.22 41 154.137 41.1875 154.845 41.5625C155.554 41.9375 156.001 42.4062 156.189 42.9688C156.689 42.2188 157.106 41.75 157.439 41.5625C157.793 41.3542 158.314 41.25 159.001 41.25ZM154.845 44.7188C151.283 44.7188 147.595 46.6979 143.783 50.6562C142.429 52.0729 141.179 53.7708 140.033 55.75C138.908 57.7292 138.345 59.0833 138.345 59.8125C138.345 60.5417 138.554 60.9062 138.97 60.9062C139.554 60.9062 141.179 59.7604 143.845 57.4688C146.512 55.1562 148.283 53.4583 149.158 52.375C150.116 51.1667 152.012 48.6146 154.845 44.7188Z" fill="black"/>
</svg>
