<svg width="393" height="150" viewBox="0 0 393 150" fill="none" xmlns="http://www.w3.org/2000/svg">
<path d="M194.016 81.6719L192.469 82C192.125 82 191.953 81.7812 191.953 81.3438C191.953 80.9062 192.078 80.625 192.328 80.5C195.328 78.7812 198.203 77.9219 200.953 77.9219C202.172 77.9219 203.094 78.3906 203.719 79.3281C204.375 80.2344 204.703 81.4688 204.703 83.0312C204.703 84.5625 203.609 87.25 201.422 91.0938C199.266 94.9375 196.375 99.2969 192.75 104.172C189.125 109.016 184.531 114.328 178.969 120.109C173.406 125.859 167.812 130.938 162.188 135.344C156.594 139.719 151.578 143.031 147.141 145.281C142.734 147.531 138.562 148.656 134.625 148.656C132.094 148.656 130.188 147.797 128.906 146.078C127.656 144.328 127.031 142.359 127.031 140.172C127.031 137.953 127.766 135.125 129.234 131.688C130.734 128.219 132.531 124.797 134.625 121.422C136.719 118.016 139.141 114.438 141.891 110.688C146.016 104.969 150.344 99.4531 154.875 94.1406C149.844 98.3281 146.406 100.781 144.562 101.5C142.75 102.219 141.172 102.578 139.828 102.578C138.516 102.578 137.484 102.031 136.734 100.938C136.016 99.8125 135.656 98.6094 135.656 97.3281C135.656 96.0156 136.172 94.7188 137.203 93.4375C138.266 92.125 139.266 91.4688 140.203 91.4688C140.547 91.4688 140.719 91.5938 140.719 91.8438C140.719 92.0938 140.594 92.3906 140.344 92.7344C140.125 93.0469 140.016 93.2656 140.016 93.3906C140.016 93.7344 140.281 93.9062 140.812 93.9062C141.344 93.9062 142.141 93.6719 143.203 93.2031C144.266 92.7344 146.891 91.0938 151.078 88.2812C155.297 85.4688 158.391 83.1406 160.359 81.2969C161.141 80.6094 162.25 80.2656 163.688 80.2656C165.156 80.2656 166.625 80.625 168.094 81.3438C169.562 82.0312 170.297 82.7344 170.297 83.4531C170.297 83.6094 170.266 83.7656 170.203 83.9219C170.141 84.0469 170.078 84.3594 170.016 84.8594C169.953 85.3281 169.703 85.9062 169.266 86.5938C168.859 87.25 165.625 91.8125 159.562 100.281C144.406 121.406 136.828 133.891 136.828 137.734C136.828 139.141 137.375 139.844 138.469 139.844C139.969 139.844 142.875 138.484 147.188 135.766C151.5 133.016 155.5 129.984 159.188 126.672C162.875 123.328 166.5 119.812 170.062 116.125C173.625 112.438 177.297 108.422 181.078 104.078C184.859 99.7344 188.062 95.5312 190.688 91.4688C193.312 87.4062 194.625 84.3281 194.625 82.2344C194.625 81.8594 194.422 81.6719 194.016 81.6719ZM219.938 112.375C222.312 112.375 223.5 113.188 223.5 114.812C223.5 115.688 223.297 116.328 222.891 116.734C222.484 117.141 221.609 118.5 220.266 120.812C218.953 123.094 217.484 126.031 215.859 129.625C214.266 133.188 213.234 136.234 212.766 138.766C212.672 139.078 212.625 139.516 212.625 140.078C212.625 141.797 213.094 142.656 214.031 142.656C214.969 142.656 216.078 142.219 217.359 141.344C218.641 140.438 219.781 139.484 220.781 138.484C221.781 137.453 222.75 136.406 223.688 135.344C224.656 134.281 225.234 133.672 225.422 133.516C225.609 133.359 225.891 133.281 226.266 133.281C226.859 133.281 227.219 133.734 227.344 134.641C227.469 135.547 227.531 136.484 227.531 137.453C227.531 138.422 227.438 139.094 227.25 139.469C226.344 141.25 224.344 143.391 221.25 145.891C218.188 148.391 215.391 149.641 212.859 149.641C210.359 149.641 208.516 148.875 207.328 147.344C206.141 145.812 205.547 144.125 205.547 142.281C205.547 140.406 205.859 138.766 206.484 137.359C203.891 140.734 200.906 143.594 197.531 145.938C194.188 148.281 191.453 149.453 189.328 149.453C187.203 149.453 185.469 148.812 184.125 147.531C182.406 145.938 181.547 143.734 181.547 140.922C181.547 138.078 182.172 135.234 183.422 132.391C184.703 129.516 186.375 126.906 188.438 124.562C190.5 122.188 192.766 120.031 195.234 118.094C200.422 114.031 205.203 112 209.578 112C211.266 112 212.641 112.281 213.703 112.844C214.766 113.406 215.438 114.109 215.719 114.953C216.469 113.828 217.094 113.125 217.594 112.844C218.125 112.531 218.906 112.375 219.938 112.375ZM213.703 117.578C208.359 117.578 202.828 120.547 197.109 126.484C195.078 128.609 193.203 131.156 191.484 134.125C189.797 137.094 188.953 139.125 188.953 140.219C188.953 141.312 189.266 141.859 189.891 141.859C190.766 141.859 193.203 140.141 197.203 136.703C201.203 133.234 203.859 130.688 205.172 129.062C206.609 127.25 209.453 123.422 213.703 117.578ZM247.734 140.781C247.734 142.156 248.672 142.844 250.547 142.844C251.547 142.844 252.797 142.344 254.297 141.344C255.828 140.344 257.203 139.25 258.422 138.062C261.672 134.844 263.516 133.234 263.953 133.234C264.766 133.234 265.172 134.406 265.172 136.75C265.172 139.094 264.438 140.703 262.969 141.578C258.5 145.609 255.047 148.062 252.609 148.938C251.234 149.406 249.719 149.625 248.062 149.594C246.406 149.562 244.766 148.844 243.141 147.438C241.516 146.031 240.703 144.328 240.703 142.328C240.703 140.297 241.234 138 242.297 135.438C243.359 132.875 244.438 130.688 245.531 128.875C246.656 127.031 248.031 124.906 249.656 122.5C251.281 120.062 252.141 118.547 252.234 117.953L252.141 117.859C251.109 117.953 248.547 119.984 244.453 123.953C240.391 127.922 237.031 131.375 234.375 134.312C231.719 137.25 228.547 141.172 224.859 146.078C223.828 147.422 222.984 148.094 222.328 148.094C221.672 148.094 220.797 147.891 219.703 147.484C218.578 147.047 217.891 146.734 217.641 146.547C217.391 146.359 217.266 146.078 217.266 145.703C217.266 145.328 217.375 144.875 217.594 144.344C217.812 143.781 218.031 143.328 218.25 142.984C218.438 142.609 218.766 142.047 219.234 141.297C219.703 140.547 220.625 138.969 222 136.562C223.406 134.125 225.547 130.5 228.422 125.688C231.297 120.875 233.016 117.969 233.578 116.969C234.766 114.906 235.734 113.406 236.484 112.469C237.891 110.688 240.266 109.797 243.609 109.797C244.359 109.797 244.734 110.266 244.734 111.203C244.734 112.672 243.375 115.438 240.656 119.5L238.688 122.453C244.094 116.453 248.656 112.656 252.375 111.062C254.188 110.281 255.812 109.891 257.25 109.891C258.719 109.891 259.875 110.281 260.719 111.062C261.594 111.844 262.031 112.719 262.031 113.688C262.031 114.625 261.703 115.766 261.047 117.109C260.391 118.422 259.719 119.609 259.031 120.672C258.375 121.703 257.5 123.016 256.406 124.609C255.312 126.203 254.719 127.078 254.625 127.234C254.531 127.359 254.281 127.734 253.875 128.359C253.5 128.953 253.219 129.391 253.031 129.672C252.844 129.953 252.531 130.453 252.094 131.172C251.656 131.859 251.297 132.438 251.016 132.906C250.766 133.375 250.438 133.953 250.031 134.641C249.656 135.328 249.344 135.922 249.094 136.422C248.875 136.922 248.641 137.469 248.391 138.062C247.953 139.156 247.734 140.062 247.734 140.781Z" fill="black"/>
<path d="M185.906 53.4688L186.156 54.6562C186.156 55.1562 185.896 55.75 185.375 56.4375C184 58.2292 181.792 60.2917 178.75 62.625C175.729 64.9375 173.5 66.0938 172.062 66.0938C170.625 66.0938 169.5 65.6771 168.688 64.8438C167.875 63.9896 167.469 63.0208 167.469 61.9375C167.469 60.6458 168.823 57.7917 171.531 53.375C175.594 46.8125 180.781 39.1458 187.094 30.375C185.76 31.75 182.219 35.4583 176.469 41.5C163.74 54.8333 156.302 62.3854 154.156 64.1562C153.802 64.4479 153.281 64.5938 152.594 64.5938C151.927 64.5938 151.219 64.3229 150.469 63.7812C149.719 63.2188 149.344 62.5938 149.344 61.9062V61.75C149.427 60.875 151.438 56.5938 155.375 48.9062C159.312 41.2188 162.615 35.1042 165.281 30.5625C161.344 34.8958 157.365 39.7292 153.344 45.0625C145.698 55.1875 140.104 63.8125 136.562 70.9375C136.25 71.6042 135.865 71.9375 135.406 71.9375C134.948 71.9375 134.281 71.8229 133.406 71.5938C131.573 71.0938 130.656 70.2188 130.656 68.9688C130.656 68.2188 132.188 65.5417 135.25 60.9375C138.312 56.3125 141.865 51.2708 145.906 45.8125C149.948 40.3333 154.135 35.0625 158.469 30C164.448 23 168.292 19.5 170 19.5C170.271 19.5 170.531 19.5729 170.781 19.7188C171.031 19.8438 171.188 19.9062 171.25 19.9062C171.312 19.9062 171.375 19.875 171.438 19.8125C171.708 19.4792 172.24 19.3125 173.031 19.3125C173.844 19.3125 174.625 19.4688 175.375 19.7812C176.146 20.0938 176.531 20.4479 176.531 20.8438C176.531 21.0938 175.49 23.0833 173.406 26.8125C166.427 39.1875 161.74 47.6875 159.344 52.3125C161.635 49.5417 164.906 45.8646 169.156 41.2812C173.427 36.6979 177.906 32.125 182.594 27.5625C188.698 21.6458 192.344 18.6875 193.531 18.6875C194.01 18.6875 194.615 18.7917 195.344 19C196.635 19.375 197.875 19.5625 199.062 19.5625C199.396 19.625 199.677 19.7708 199.906 20C200.156 20.2083 200.281 20.4271 200.281 20.6562C200.281 20.8854 200.219 21.0729 200.094 21.2188C193.323 30.2188 187.615 38.1562 182.969 45.0312C178.323 51.9062 175.458 56.5521 174.375 58.9688C176.562 58.5104 179.823 55.8958 184.156 51.125C184.344 50.875 184.479 50.7083 184.562 50.625C184.646 50.5417 184.719 50.4583 184.781 50.375C185.135 49.9583 185.406 50.2188 185.594 51.1562C185.677 51.6979 185.729 52.0833 185.75 52.3125C185.792 52.5208 185.823 52.75 185.844 53C185.885 53.2292 185.906 53.3854 185.906 53.4688ZM207.875 30.6875C207.875 31.875 207.323 33.0729 206.219 34.2812C205.115 35.4688 203.958 36.0625 202.75 36.0625C201.562 36.0625 200.969 35.4375 200.969 34.1875C200.969 32.9375 201.49 31.75 202.531 30.625C203.594 29.4792 204.76 28.9062 206.031 28.9062C206.594 28.9062 207.042 29.0625 207.375 29.375C207.708 29.6875 207.875 30.125 207.875 30.6875ZM202.812 57.9688C202.812 58.5938 202.75 59.0417 202.625 59.3125C201.604 61.3958 199.979 63.0833 197.75 64.375C195.521 65.6458 193.583 66.2812 191.938 66.2812C190.292 66.2812 188.875 65.7292 187.688 64.625C186.5 63.5208 185.906 62.3958 185.906 61.25C185.906 60.1042 186.479 58.4375 187.625 56.25C188.771 54.0625 189.917 52.0417 191.062 50.1875C192.208 48.3333 192.781 47.3333 192.781 47.1875C192.781 47.0208 192.562 46.7083 192.125 46.25C191.708 45.7917 191.5 45.4583 191.5 45.25C191.5 45.0208 191.927 44.4479 192.781 43.5312C193.656 42.5938 194.708 41.6771 195.938 40.7812C197.188 39.8646 198.135 39.4062 198.781 39.4062C199.448 39.4062 200.042 39.6979 200.562 40.2812C201.083 40.8646 201.344 41.3958 201.344 41.875C201.344 42.3542 198.865 46.8646 193.906 55.4062C193.844 55.5312 193.667 55.8125 193.375 56.25C193.104 56.6667 192.885 57.0208 192.719 57.3125C192.573 57.5833 192.396 57.9167 192.188 58.3125C191.771 59.1458 191.562 59.8438 191.562 60.4062C191.562 61.1146 192.042 61.4688 193 61.4688C193.958 61.4688 194.948 61.1458 195.969 60.5C197.01 59.8333 197.906 59.1042 198.656 58.3125C200.615 56.2083 201.729 55.1562 202 55.1562C202.542 55.1562 202.812 56.0938 202.812 57.9688ZM216.844 60.1875C216.844 61.1042 217.469 61.5625 218.719 61.5625C219.385 61.5625 220.219 61.2292 221.219 60.5625C222.24 59.8958 223.156 59.1667 223.969 58.375C226.135 56.2292 227.365 55.1562 227.656 55.1562C228.198 55.1562 228.469 55.9375 228.469 57.5C228.469 59.0625 227.979 60.1354 227 60.7188C224.021 63.4062 221.719 65.0417 220.094 65.625C219.177 65.9375 218.167 66.0833 217.062 66.0625C215.958 66.0417 214.865 65.5625 213.781 64.625C212.698 63.6875 212.156 62.5521 212.156 61.2188C212.156 59.8646 212.51 58.3333 213.219 56.625C213.927 54.9167 214.646 53.4583 215.375 52.25C216.125 51.0208 217.042 49.6042 218.125 48C219.208 46.375 219.781 45.3646 219.844 44.9688L219.781 44.9062C219.094 44.9688 217.385 46.3229 214.656 48.9688C211.948 51.6146 209.708 53.9167 207.938 55.875C206.167 57.8333 204.052 60.4479 201.594 63.7188C200.906 64.6146 200.344 65.0625 199.906 65.0625C199.469 65.0625 198.885 64.9271 198.156 64.6562C197.406 64.3646 196.948 64.1562 196.781 64.0312C196.615 63.9062 196.531 63.7188 196.531 63.4688C196.531 63.2188 196.604 62.9167 196.75 62.5625C196.896 62.1875 197.042 61.8854 197.188 61.6562C197.312 61.4062 197.531 61.0312 197.844 60.5312C198.156 60.0312 198.771 58.9792 199.688 57.375C200.625 55.75 202.052 53.3333 203.969 50.125C205.885 46.9167 207.031 44.9792 207.406 44.3125C208.198 42.9375 208.844 41.9375 209.344 41.3125C210.281 40.125 211.865 39.5312 214.094 39.5312C214.594 39.5312 214.844 39.8438 214.844 40.4688C214.844 41.4479 213.938 43.2917 212.125 46L210.812 47.9688C214.417 43.9688 217.458 41.4375 219.938 40.375C221.146 39.8542 222.229 39.5938 223.188 39.5938C224.167 39.5938 224.938 39.8542 225.5 40.375C226.083 40.8958 226.375 41.4792 226.375 42.125C226.375 42.75 226.156 43.5104 225.719 44.4062C225.281 45.2812 224.833 46.0729 224.375 46.7812C223.938 47.4688 223.354 48.3438 222.625 49.4062C221.896 50.4688 221.5 51.0521 221.438 51.1562C221.375 51.2396 221.208 51.4896 220.938 51.9062C220.688 52.3021 220.5 52.5938 220.375 52.7812C220.25 52.9688 220.042 53.3021 219.75 53.7812C219.458 54.2396 219.219 54.625 219.031 54.9375C218.865 55.25 218.646 55.6354 218.375 56.0938C218.125 56.5521 217.917 56.9479 217.75 57.2812C217.604 57.6146 217.448 57.9792 217.281 58.375C216.99 59.1042 216.844 59.7083 216.844 60.1875ZM253.031 55.7812C253.177 56.7396 253.25 57.5 253.25 58.0625C253.25 58.6042 253.146 59.0833 252.938 59.5C252.75 59.8958 252.312 60.4688 251.625 61.2188C250.958 61.9479 250.156 62.6875 249.219 63.4375C246.927 65.25 244.583 66.1562 242.188 66.1562C238.75 66.1562 237.031 64.6354 237.031 61.5938C237.031 58.9479 239.333 53.6771 243.938 45.7812C244.104 45.4896 244.219 45.2812 244.281 45.1562C242.677 46.2812 239.604 49.3542 235.062 54.375C230.542 59.375 227.531 62.9167 226.031 65C225.906 65.1875 225.594 65.3958 225.094 65.625C224.594 65.8542 224.198 65.9688 223.906 65.9688C223.635 65.9688 223.344 65.875 223.031 65.6875C222.698 65.5208 222.49 65.4375 222.406 65.4375C222.135 65.4375 222 65.3438 222 65.1562C222 64.9896 222.375 64.0417 223.125 62.3125C223.854 60.5625 224.823 58.3958 226.031 55.8125C229.344 48.6875 234.271 39.4167 240.812 28C243.104 24 244.896 21.1667 246.188 19.5C247.104 18.3125 248.646 17.7188 250.812 17.7188C251.271 17.7188 251.531 17.8542 251.594 18.125C251.656 18.3958 251.688 18.6875 251.688 19C251.688 19.3125 251.625 19.625 251.5 19.9375L248.156 25.1562C241.531 35.4896 236.542 44.0521 233.188 50.8438C236.438 46.8854 239.594 43.8333 242.656 41.6875C244.552 40.3333 245.969 39.6562 246.906 39.6562C247.865 39.6562 248.729 39.8125 249.5 40.125C250.271 40.4167 250.656 41.1354 250.656 42.2812C250.656 42.6979 249.979 44.2396 248.625 46.9062C244.562 54.9062 242.531 59.3542 242.531 60.25C242.531 61.125 242.896 61.5625 243.625 61.5625C244.688 61.5625 246.323 60.5312 248.531 58.4688C250.198 56.9062 251.25 55.9062 251.688 55.4688C251.938 55.2812 252.167 55.1875 252.375 55.1875C252.771 55.1875 252.99 55.3854 253.031 55.7812ZM274.562 41.25C276.146 41.25 276.938 41.7917 276.938 42.875C276.938 43.4583 276.802 43.8854 276.531 44.1562C276.26 44.4271 275.677 45.3333 274.781 46.875C273.906 48.3958 272.927 50.3542 271.844 52.75C270.781 55.125 270.094 57.1562 269.781 58.8438C269.719 59.0521 269.688 59.3438 269.688 59.7188C269.688 60.8646 270 61.4375 270.625 61.4375C271.25 61.4375 271.99 61.1458 272.844 60.5625C273.698 59.9583 274.458 59.3229 275.125 58.6562C275.792 57.9688 276.438 57.2708 277.062 56.5625C277.708 55.8542 278.094 55.4479 278.219 55.3438C278.344 55.2396 278.531 55.1875 278.781 55.1875C279.177 55.1875 279.417 55.4896 279.5 56.0938C279.583 56.6979 279.625 57.3229 279.625 57.9688C279.625 58.6146 279.562 59.0625 279.438 59.3125C278.833 60.5 277.5 61.9271 275.438 63.5938C273.396 65.2604 271.531 66.0938 269.844 66.0938C268.177 66.0938 266.948 65.5833 266.156 64.5625C265.365 63.5417 264.969 62.4167 264.969 61.1875C264.969 59.9375 265.177 58.8438 265.594 57.9062C263.865 60.1562 261.875 62.0625 259.625 63.625C257.396 65.1875 255.573 65.9688 254.156 65.9688C252.74 65.9688 251.583 65.5417 250.688 64.6875C249.542 63.625 248.969 62.1562 248.969 60.2812C248.969 58.3854 249.385 56.4896 250.219 54.5938C251.073 52.6771 252.188 50.9375 253.562 49.375C254.938 47.7917 256.448 46.3542 258.094 45.0625C261.552 42.3542 264.74 41 267.656 41C268.781 41 269.698 41.1875 270.406 41.5625C271.115 41.9375 271.562 42.4062 271.75 42.9688C272.25 42.2188 272.667 41.75 273 41.5625C273.354 41.3542 273.875 41.25 274.562 41.25ZM270.406 44.7188C266.844 44.7188 263.156 46.6979 259.344 50.6562C257.99 52.0729 256.74 53.7708 255.594 55.75C254.469 57.7292 253.906 59.0833 253.906 59.8125C253.906 60.5417 254.115 60.9062 254.531 60.9062C255.115 60.9062 256.74 59.7604 259.406 57.4688C262.073 55.1562 263.844 53.4583 264.719 52.375C265.677 51.1667 267.573 48.6146 270.406 44.7188Z" fill="black"/>
</svg>
